#!OML:ASF H:\Pregnant\Project 1\Capture day 1\Session 1\femalepreg.ASF
:FULLY-SPECIFIED
:DEGREES
1664
root 7.53883 15.9385 21.5768 375.652 -72.389 -351.943
lowerback -16.1307 -3.87554 4.1269
upperback -9.72812 -6.19737 0.0845677
thorax -1.78843 -3.54724 -3.06577
lowerneck -24.2906 2.54561 0.919322
upperneck 35.2443 1.85847 2.16062
head 16.8725 0.96471 1.12353
rclavicle -6.72513e-014 -2.04748e-014
rhumerus -35.1298 -53.3231 26.5425
rradius 25.9744
rwrist 11.9959
rhand -16.2346 -18.118
rfingers 7.12502
rthumb 9.97379 -47.8617
lclavicle -6.72513e-014 -2.04748e-014
lhumerus -30.8204 31.6979 -5.45982
lradius 31.9204
lwrist 14.2792
lhand -31.1756 -1.90426
lfingers 7.12502
lthumb -4.45274 28.0289
rfemur -28.8559 10.2894 26.5788
rtibia 19.9943
rfoot -9.61817 -19.1652
rtoes 23.0589
lfemur -267.607 -21.1664 110.072
ltibia 159.702
lfoot -68.1705 20.0924
ltoes -19.7581
1665
root 7.53617 15.9348 21.5712 375.772 -72.3299 -352.122
lowerback -16.1072 -3.88554 4.03148
upperback -9.72768 -6.19614 0.0713189
thorax -1.79066 -3.5423 -3.02496
lowerneck -24.2651 2.53671 0.932715
upperneck 35.2232 1.84134 2.15994
head 16.856 0.959957 1.1165
rclavicle -4.45775e-014 -3.67752e-014
rhumerus -34.8707 -53.3755 26.6225
rradius 26.0184
rwrist 12.0007
rhand -16.2606 -18.1089
rfingers 7.12502
rthumb 9.9487 -47.8538
lclavicle -4.45775e-014 -3.67752e-014
lhumerus -30.9303 31.8181 -5.58657
lradius 31.7607
lwrist 14.1529
lhand -31.2788 -1.98301
lfingers 7.12502
lthumb -4.55237 27.9481
rfemur -28.7805 10.2433 26.6867
rtibia 19.9747
rfoot -9.61215 -19.1563
rtoes 23.0614
lfemur -267.775 -20.823 110.252
ltibia 159.743
lfoot -68.18 19.8805
ltoes -19.6477
1666
root 7.53397 15.9311 21.566 375.911 -72.2863 -352.324
lowerback -16.0664 -3.88702 3.94774
upperback -9.72932 -6.1845 0.061741
thorax -1.80421 -3.53275 -2.98371
lowerneck -24.2429 2.52697 0.94567
upperneck 35.2006 1.82911 2.14547
head 16.8396 0.955132 1.10449
rclavicle 4.6118e-014 1.97791e-014
rhumerus -34.6092 -53.4179 26.7009
rradius 26.0567
rwrist 12.0748
rhand -16.1151 -18.1224
rfingers 7.12502
rthumb 10.0891 -47.8606
lclavicle 4.6118e-014 1.97791e-014
lhumerus -31.0529 31.9037 -5.69747
lradius 31.6118
lwrist 14.0452
lhand -31.3436 -2.03855
lfingers 7.12502
lthumb -4.61489 27.8912
rfemur -28.6983 10.1593 26.814
rtibia 19.9492
rfoot -9.60307 -19.0908
rtoes 23.0373
lfemur -267.962 -20.4983 110.435
ltibia 159.785
lfoot -68.2227 19.6425
ltoes -19.5427
1667
root 7.53213 15.9275 21.5612 376.07 -72.2592 -352.55
lowerback -16.0129 -3.87614 3.88444
upperback -9.73327 -6.15888 0.0466661
thorax -1.82873 -3.51755 -2.95637
lowerneck -24.2237 2.51366 0.95834
upperneck 35.1788 1.81175 2.13059
head 16.8244 0.948116 1.09136
rclavicle 3.87009e-014 1.2424e-014
rhumerus -34.3661 -53.4519 26.7879
rradius 26.0911
rwrist 12.2001
rhand -15.7985 -18.144
rfingers 7.12502
rthumb 10.3945 -47.8671
lclavicle 3.87009e-014 1.2424e-014
lhumerus -31.1685 31.9549 -5.79581
lradius 31.4686
lwrist 13.9793
lhand -31.3617 -2.05684
lfingers 7.12502
lthumb -4.6324 27.8725
rfemur -28.6113 10.0366 26.9603
rtibia 19.9179
rfoot -9.59391 -18.9645
rtoes 22.9853
lfemur -268.161 -20.1894 110.617
ltibia 159.828
lfoot -68.2911 19.3943
ltoes -19.4465
1668
root 7.53049 15.924 21.5568 376.241 -72.2497 -352.787
lowerback -15.9654 -3.85437 3.85103
upperback -9.72939 -6.12291 0.0149402
thorax -1.84631 -3.4986 -2.96257
lowerneck -24.2135 2.50131 0.977989
upperneck 35.1523 1.78815 2.12771
head 16.809 0.94157 1.08116
rclavicle 7.79298e-014 1.76918e-014
rhumerus -34.1438 -53.4734 26.8589
rradius 26.1212
rwrist 12.3352
rhand -15.4755 -18.1671
rfingers 7.12502
rthumb 10.7061 -47.8743
lclavicle 7.79298e-014 1.76918e-014
lhumerus -31.2732 32.0682 -5.93024
lradius 31.3097
lwrist 13.8866
lhand -31.3345 -2.03998
lfingers 7.12502
lthumb -4.60618 27.8899
rfemur -28.5237 9.86549 27.1237
rtibia 19.882
rfoot -9.58591 -18.7663
rtoes 22.9061
lfemur -268.361 -19.8942 110.793
ltibia 159.867
lfoot -68.3733 19.1416
ltoes -19.3754
1669
root 7.52899 15.9207 21.5527 376.425 -72.2551 -353.035
lowerback -15.9255 -3.82665 3.83531
upperback -9.71925 -6.08155 -0.0227534
thorax -1.8555 -3.47755 -2.98517
lowerneck -24.2133 2.49066 0.999396
upperneck 35.1251 1.76311 2.13296
head 16.7957 0.936032 1.07416
rclavicle -6.97144e-014 -1.12313e-014
rhumerus -33.9242 -53.4871 26.9079
rradius 26.1488
rwrist 12.4483
rhand -15.225 -18.1789
rfingers 7.12502
rthumb 10.9477 -47.8735
lclavicle -6.97144e-014 -1.12313e-014
lhumerus -31.3846 32.2038 -6.08597
lradius 31.1488
lwrist 13.8128
lhand -31.2746 -1.98771
lfingers 7.12502
lthumb -4.54835 27.9435
rfemur -28.4386 9.65346 27.301
rtibia 19.8436
rfoot -9.58404 -18.5075
rtoes 22.817
lfemur -268.556 -19.6067 110.96
ltibia 159.902
lfoot -68.4652 18.8941
ltoes -19.3263
1670
root 7.52752 15.9176 21.5492 376.611 -72.2733 -353.279
lowerback -15.903 -3.79491 3.83247
upperback -9.69917 -6.03698 -0.0673042
thorax -1.84691 -3.45498 -3.02382
lowerneck -24.2214 2.48397 1.03601
upperneck 35.0897 1.74068 2.1313
head 16.7805 0.932916 1.06207
rclavicle 5.69549e-014 1.89839e-014
rhumerus -33.7108 -53.5092 26.9389
rradius 26.1744
rwrist 12.534
rhand -15.1059 -18.1881
rfingers 7.12502
rthumb 11.0626 -47.8766
lclavicle 5.69549e-014 1.89839e-014
lhumerus -31.4972 32.3927 -6.27292
lradius 30.9706
lwrist 13.7324
lhand -31.1903 -1.90201
lfingers 7.12502
lthumb -4.46691 28.0309
rfemur -28.3609 9.41273 27.4823
rtibia 19.8053
rfoot -9.58858 -18.2026
rtoes 22.7279
lfemur -268.74 -19.3218 111.115
ltibia 159.932
lfoot -68.561 18.6508
ltoes -19.2767
1671
root 7.52605 15.9148 21.546 376.789 -72.3017 -353.507
lowerback -15.9133 -3.76033 3.84979
upperback -9.6607 -5.99198 -0.127828
thorax -1.8054 -3.43229 -3.09429
lowerneck -24.2402 2.48535 1.1008
upperneck 35.0408 1.72243 2.12068
head 16.7616 0.934487 1.04203
rclavicle 4.7553e-014 4.79568e-015
rhumerus -33.5245 -53.5508 26.9514
rradius 26.2036
rwrist 12.5955
rhand -15.1437 -18.1906
rfingers 7.12502
rthumb 11.0262 -47.881
lclavicle 4.7553e-014 4.79568e-015
lhumerus -31.6069 32.6229 -6.49755
lradius 30.7807
lwrist 13.6597
lhand -31.0991 -1.78486
lfingers 7.12502
lthumb -4.3788 28.1499
rfemur -28.294 9.14893 27.6624
rtibia 19.7687
rfoot -9.59419 -17.8643
rtoes 22.617
lfemur -268.909 -19.0352 111.254
ltibia 159.954
lfoot -68.656 18.414
ltoes -19.2313
1672
root 7.52457 15.9121 21.5433 376.968 -72.336 -353.724
lowerback -15.949 -3.72296 3.88438
upperback -9.61261 -5.94635 -0.198818
thorax -1.74332 -3.40967 -3.18795
lowerneck -24.2662 2.49091 1.1789
upperneck 34.9863 1.70527 2.10905
head 16.7418 0.938363 1.01954
rclavicle 9.31675e-014 4.14218e-014
rhumerus -33.3579 -53.6137 26.9553
rradius 26.2341
rwrist 12.652
rhand -15.3057 -18.1786
rfingers 7.12502
rthumb 10.8699 -47.8773
lclavicle 9.31675e-014 4.14218e-014
lhumerus -31.7185 32.8438 -6.7369
lradius 30.5961
lwrist 13.6236
lhand -31.0197 -1.65686
lfingers 7.12502
lthumb -4.30214 28.2794
rfemur -28.241 8.87686 27.8375
rtibia 19.7364
rfoot -9.6067 -17.5095
rtoes 22.5202
lfemur -269.06 -18.7431 111.381
ltibia 159.969
lfoot -68.7486 18.1773
ltoes -19.1871
1673
root 7.52302 15.9096 21.541 377.14 -72.3755 -353.922
lowerback -16.0052 -3.68335 3.92385
upperback -9.56176 -5.89934 -0.272005
thorax -1.66813 -3.38633 -3.2884
lowerneck -24.2965 2.49704 1.2562
upperneck 34.9306 1.69086 2.09386
head 16.7225 0.942741 0.996279
rclavicle -8.18993e-014 -3.19049e-014
rhumerus -33.2123 -53.7102 26.9718
rradius 26.2693
rwrist 12.7452
rhand -15.4657 -18.1462
rfingers 7.12502
rthumb 10.7156 -47.8529
lclavicle -8.18993e-014 -3.19049e-014
lhumerus -31.8305 33.0762 -6.98862
lradius 30.4051
lwrist 13.5849
lhand -30.9466 -1.53753
lfingers 7.12502
lthumb -4.23159 28.4002
rfemur -28.2052 8.59171 28.0069
rtibia 19.7094
rfoot -9.62203 -17.1378
rtoes 22.4159
lfemur -269.188 -18.4442 111.496
ltibia 159.977
lfoot -68.8341 17.9474
ltoes -19.1644
1674
root 7.52144 15.9073 21.539 377.309 -72.4189 -354.103
lowerback -16.0695 -3.64149 3.96072
upperback -9.51873 -5.84992 -0.34002
thorax -1.5959 -3.36197 -3.38191
lowerneck -24.3258 2.5009 1.32198
upperneck 34.8825 1.67803 2.07769
head 16.7065 0.945773 0.974999
rclavicle -5.5756e-014 -4.24405e-014
rhumerus -33.0611 -53.7997 26.9862
rradius 26.3112
rwrist 12.8561
rhand -15.6277 -18.1035
rfingers 7.12502
rthumb 10.5593 -47.8182
lclavicle -5.5756e-014 -4.24405e-014
lhumerus -31.9464 33.2904 -7.23497
lradius 30.2169
lwrist 13.5463
lhand -30.8796 -1.45572
lfingers 7.12502
lthumb -4.16687 28.4833
rfemur -28.1889 8.29615 28.171
rtibia 19.6896
rfoot -9.64402 -16.7527
rtoes 22.3179
lfemur -269.292 -18.1386 111.602
ltibia 159.98
lfoot -68.9098 17.7126
ltoes -19.1673
1675
root 7.51981 15.905 21.5372 377.484 -72.4637 -354.277
lowerback -16.1283 -3.59862 3.99027
upperback -9.49436 -5.79908 -0.395363
thorax -1.54408 -3.33752 -3.4563
lowerneck -24.3504 2.49935 1.35807
upperneck 34.8532 1.666 2.06887
head 16.6984 0.945611 0.962434
rclavicle 5.12616e-014 2.05742e-014
rhumerus -32.8811 -53.8614 26.9877
rradius 26.3594
rwrist 12.9866
rhand -15.8213 -18.0491
rfingers 7.12502
rthumb 10.3725 -47.7733
lclavicle 5.12616e-014 2.05742e-014
lhumerus -32.07 33.5026 -7.48213
lradius 30.0265
lwrist 13.4662
lhand -30.8136 -1.40581
lfingers 7.12502
lthumb -4.1031 28.5344
rfemur -28.1911 8.0041 28.3298
rtibia 19.6776
rfoot -9.6743 -16.3703
rtoes 22.2294
lfemur -269.369 -17.8229 111.702
ltibia 159.978
lfoot -68.9671 17.4894
ltoes -19.2305
1676
root 7.51823 15.9025 21.5355 377.67 -72.5072 -354.45
lowerback -16.1819 -3.55668 4.01237
upperback -9.48711 -5.74925 -0.437469
thorax -1.51105 -3.31411 -3.51133
lowerneck -24.3671 2.49563 1.37713
upperneck 34.8384 1.65832 2.05754
head 16.6954 0.944025 0.952658
rclavicle 6.19587e-014 -5.1684e-015
rhumerus -32.6671 -53.8885 26.9671
rradius 26.4101
rwrist 13.1256
rhand -16.045 -17.9924
rfingers 7.12502
rthumb 10.1568 -47.7272
lclavicle 6.19587e-014 -5.1684e-015
lhumerus -32.2048 33.735 -7.74149
lradius 29.831
lwrist 13.3195
lhand -30.7282 -1.40909
lfingers 7.12502
lthumb -4.02063 28.5327
rfemur -28.2113 7.72339 28.4828
rtibia 19.6736
rfoot -9.7108 -15.9995
rtoes 22.1491
lfemur -269.42 -17.4955 111.797
ltibia 159.974
lfoot -69.0009 17.2691
ltoes -19.3348
1677
root 7.51668 15.9 21.5338 377.871 -72.5467 -354.628
lowerback -16.2272 -3.51855 4.02081
upperback -9.4969 -5.70321 -0.458394
thorax -1.49705 -3.29258 -3.53536
lowerneck -24.3782 2.48995 1.37489
upperneck 34.8416 1.65834 2.04052
head 16.6998 0.941276 0.945783
rclavicle 1.67725e-014 2.19657e-014
rhumerus -32.4128 -53.8889 26.9268
rradius 26.4637
rwrist 13.2696
rhand -16.3185 -17.9382
rfingers 7.12502
rthumb 9.89291 -47.6858
lclavicle 1.67725e-014 2.19657e-014
lhumerus -32.3626 33.9767 -8.00644
lradius 29.6391
lwrist 13.1173
lhand -30.6254 -1.41849
lfingers 7.12502
lthumb -3.92145 28.5252
rfemur -28.2464 7.45975 28.6317
rtibia 19.6765
rfoot -9.75086 -15.6488
rtoes 22.0771
lfemur -269.453 -17.1548 111.89
ltibia 159.971
lfoot -69.0165 17.0589
ltoes -19.4697
1678
root 7.51522 15.8972 21.5321 378.093 -72.58 -354.819
lowerback -16.2633 -3.48443 4.01952
upperback -9.52156 -5.66154 -0.460465
thorax -1.50103 -3.27334 -3.53314
lowerneck -24.3844 2.48458 1.36499
upperneck 34.8604 1.66632 2.01088
head 16.7109 0.938357 0.93642
rclavicle -1.04238e-014 1.63003e-014
rhumerus -32.1253 -53.8795 26.8738
rradius 26.5193
rwrist 13.4202
rhand -16.575 -17.8995
rfingers 7.12502
rthumb 9.6454 -47.6587
lclavicle -1.04238e-014 1.63003e-014
lhumerus -32.5395 34.211 -8.27145
lradius 29.4582
lwrist 12.8878
lhand -30.5032 -1.41864
lfingers 7.12502
lthumb -3.80336 28.5272
rfemur -28.2935 7.22751 28.774
rtibia 19.6855
rfoot -9.79136 -15.3328
rtoes 22.0131
lfemur -269.479 -16.8014 111.982
ltibia 159.972
lfoot -69.02 16.846
ltoes -19.5785
